<svg width="441" height="39" viewBox="0 0 441 39" fill="none" xmlns="http://www.w3.org/2000/svg">
<path d="M0 29.8169L5.6886 26.8972C7.29157 30.8422 11.4779 32.5813 15.8726 32.5813C20.1654 32.5813 24.1953 31.0943 24.1953 27.2038C24.1953 23.8262 20.6277 22.4437 15.822 21.9262C8.42904 21.0567 1.60424 19.1161 1.60424 11.0798C1.60424 3.70723 8.94711 0.677383 15.6149 0.629883C21.2515 0.629883 27.0928 2.22267 29.8326 7.74657L24.403 10.5104C23.1648 8.46478 19.7499 6.5205 15.822 6.5205C10.7553 6.5205 8.32265 8.61682 8.32265 11.2806C8.32265 14.4067 12.0466 15.2756 16.3901 15.788C23.9407 16.7126 30.9688 18.6576 30.9688 27.2069C30.9688 35.1977 23.8387 38.6303 15.7688 38.6303C8.37774 38.6271 2.68914 36.375 0 29.8169ZM210.862 20.2429C210.862 10.1564 217.22 0.833829 229.993 0.833829C235.018 0.835399 239.844 2.80135 243.44 6.31207L239.196 10.6136C236.667 8.33841 233.394 7.06431 229.992 7.03029C222.238 7.03029 217.534 12.8702 217.534 20.2435C217.534 26.1334 220.995 32.2299 229.992 32.2299C232.976 32.3147 235.886 31.2925 238.162 29.3603V23.0035H228.91V16.9723H244.414V32.0747C240.851 36.116 236.35 38.5277 229.992 38.5277C216.394 38.5264 210.862 29.6662 210.862 20.2429ZM66.0276 20.2429C66.0276 10.1564 72.3857 0.833829 85.1543 0.833829C90.1801 0.833513 95.0065 2.79974 98.6013 6.31207L94.3668 10.613C91.8359 8.33679 88.5612 7.06262 85.1575 7.02967C77.4086 7.02967 72.6998 12.8696 72.6998 20.2429C72.6998 26.1328 76.1654 32.2292 85.1575 32.2292C88.1432 32.314 91.0549 31.292 93.3326 29.3596V23.0028H84.0758V16.9717H99.5836V32.074C96.0211 36.1153 91.52 38.5271 85.1569 38.5271C71.563 38.5265 66.0276 29.6662 66.0276 20.2429ZM373.123 20.037C373.072 10.6637 379.227 1.13588 392.309 1.13588C394.775 1.13181 397.217 1.61395 399.497 2.55461C401.776 3.49528 403.848 4.87603 405.594 6.61799L401.047 10.9703C398.682 8.75215 395.549 7.53944 392.307 7.58824C383.567 7.58824 379.793 14.0482 379.844 20.037C379.895 25.977 383.356 32.1742 392.307 32.1742C395.69 32.1519 398.939 30.8523 401.405 28.5357L406.058 33.1944C402.334 36.8373 397.524 38.522 392.307 38.522C378.866 38.522 373.174 29.359 373.123 20.037ZM138.062 22.4437V1.90412H144.831V22.4437C144.831 28.8967 148.555 32.3293 154.188 32.3293C159.821 32.3293 163.032 28.5927 163.032 22.4437V1.90412H169.809V22.4437C169.809 33.0386 163.243 38.4758 154.14 38.4758C145.454 38.4758 138.061 33.2438 138.061 22.4437H138.062ZM342.353 38.1116V31.5535H369.436V38.1116H342.353ZM35.4566 38.1116V31.5535H62.5392V38.1116H35.4566ZM434.032 37.7569V23.2632H416.24V37.7569H409.416V1.9035H416.24V17.0154H434.031V1.9035H440.801V37.7569H434.032ZM284.086 37.7569V23.2632H266.296V37.7569H259.465V1.9035H266.295V17.0154H284.085V1.9035H290.855V37.7569H284.086ZM183.305 13.5327V37.7063H176.474V1.85348H182.005L199.744 24.0833V1.8047H206.564V37.7081H202.332V37.7589L183.305 13.5327ZM296.798 37.7081V1.85534H303.575V37.7081H296.798ZM320.485 37.7081V8.00116H309.007V1.85472H338.788V8.00116H327.307V37.7081H320.485ZM114.327 37.7081V22.9079L100.418 2.16636V1.85534H108.537L117.742 16.6607L127.358 1.85534H135.583V2.16636L121.156 22.9079V37.7081H114.327ZM342.477 23.4728V16.9147H369.559V23.4728H342.477ZM35.5801 23.4728V16.9147H62.6627V23.4728H35.5801ZM342.477 8.82769V2.26763H369.559V8.82575L342.477 8.82769ZM35.5801 8.82769V2.26763H62.6627V8.82575L35.5801 8.82769Z" fill="black"/>
</svg>
