<svg width="20" height="21" viewBox="0 0 20 21" fill="none" xmlns="http://www.w3.org/2000/svg">
<path d="M10 0.547852C8.625 0.547852 7.32812 0.80957 6.10938 1.33301C4.89062 1.85645 3.82812 2.57129 2.92188 3.47754C2.01562 4.38379 1.30078 5.44238 0.777344 6.65332C0.253906 7.86426 -0.0078125 9.15723 -0.0078125 10.5322C-0.0078125 11.9229 0.253906 13.2236 0.777344 14.4346C1.30078 15.6455 2.01562 16.7041 2.92188 17.6104C3.82812 18.5166 4.89062 19.2314 6.10938 19.7549C7.32812 20.2783 8.625 20.54 10 20.54C11.375 20.54 12.6719 20.2783 13.8906 19.7549C15.1094 19.2314 16.1719 18.5166 17.0781 17.6104C17.9844 16.7041 18.6992 15.6455 19.2227 14.4346C19.7461 13.2236 20.0078 11.9229 20.0078 10.5322C20.0078 9.15723 19.7461 7.86426 19.2227 6.65332C18.6992 5.44238 17.9844 4.38379 17.0781 3.47754C16.1719 2.57129 15.1094 1.85645 13.8906 1.33301C12.6719 0.80957 11.375 0.547852 10 0.547852ZM17.9219 9.54785H14.9688C14.875 8.06348 14.6328 6.79395 14.2422 5.73926C13.8516 4.68457 13.4141 3.80566 12.9297 3.10254C13.6016 3.36816 14.2227 3.71582 14.793 4.14551C15.3633 4.5752 15.8633 5.06738 16.293 5.62207C16.7227 6.17676 17.0781 6.78613 17.3594 7.4502C17.6406 8.11426 17.8281 8.81348 17.9219 9.54785ZM9.97656 18.3135C9.75781 18.126 9.49219 17.8564 9.17969 17.5049C8.86719 17.1533 8.5625 16.7041 8.26562 16.1572C7.96875 15.6104 7.70703 14.958 7.48047 14.2002C7.25391 13.4424 7.10156 12.5557 7.02344 11.54H12.9531C12.8906 12.5557 12.7422 13.4424 12.5078 14.2002C12.2734 14.958 12.0078 15.6104 11.7109 16.1572C11.4141 16.7041 11.1055 17.1533 10.7852 17.5049C10.4648 17.8564 10.1953 18.126 9.97656 18.3135ZM7.02344 9.54785C7.10156 8.53223 7.25391 7.6416 7.48047 6.87598C7.70703 6.11035 7.97266 5.4541 8.27734 4.90723C8.58203 4.36035 8.88672 3.91113 9.19141 3.55957C9.49609 3.20801 9.75781 2.93848 9.97656 2.75098C10.1953 2.93848 10.4648 3.20801 10.7852 3.55957C11.1055 3.91113 11.4141 4.36035 11.7109 4.90723C12.0078 5.4541 12.2734 6.11035 12.5078 6.87598C12.7422 7.6416 12.8906 8.53223 12.9531 9.54785H7.02344ZM7.04688 3.10254C6.57812 3.80566 6.14844 4.68457 5.75781 5.73926C5.36719 6.79395 5.125 8.06348 5.03125 9.54785H2.07812C2.17188 8.81348 2.35547 8.11426 2.62891 7.4502C2.90234 6.78613 3.25781 6.17676 3.69531 5.62207C4.13281 5.06738 4.63281 4.5752 5.19531 4.14551C5.75781 3.71582 6.375 3.36816 7.04688 3.10254ZM2.07812 11.54H5.03125C5.125 13.0088 5.36719 14.2705 5.75781 15.3252C6.14844 16.3799 6.57812 17.2588 7.04688 17.9619C6.375 17.6963 5.75781 17.3486 5.19531 16.9189C4.63281 16.4893 4.13281 16.001 3.69531 15.4541C3.25781 14.9072 2.90234 14.3018 2.62891 13.6377C2.35547 12.9736 2.17188 12.2744 2.07812 11.54ZM12.9297 17.9854C13.4141 17.2822 13.8516 16.4033 14.2422 15.3486C14.6328 14.2939 14.875 13.0244 14.9688 11.54H17.9219C17.8281 12.2744 17.6406 12.9736 17.3594 13.6377C17.0781 14.3018 16.7227 14.9111 16.293 15.4658C15.8633 16.0205 15.3633 16.5127 14.793 16.9424C14.2227 17.3721 13.6016 17.7197 12.9297 17.9854Z" fill="black"/>
</svg>
