<svg width="32" height="32" viewBox="0 0 32 32" fill="none" xmlns="http://www.w3.org/2000/svg">
<g clip-path="url(#clip0_70_7)">
<path d="M16 32C7.16344 32 0 24.8365 0 16C0 7.16344 7.16344 0 16 0C24.8365 0 32 7.16344 32 16C32 24.8365 24.8365 32 16 32ZM16 28.8C23.0693 28.8 28.8 23.0693 28.8 16C28.8 8.93075 23.0693 3.2 16 3.2C8.93075 3.2 3.2 8.93075 3.2 16C3.2 23.0693 8.93075 28.8 16 28.8ZM16 20.8C13.349 20.8 11.2 18.651 11.2 16C11.2 13.349 13.349 11.2 16 11.2C18.651 11.2 20.8 13.349 20.8 16C20.8 18.651 18.651 20.8 16 20.8Z" fill="black"/>
</g>
<defs>
<clipPath id="clip0_70_7">
<rect width="32" height="32" fill="white"/>
</clipPath>
</defs>
</svg>
